<svg width="1440" height="1024" viewBox="0 0 1440 1024" fill="none" xmlns="http://www.w3.org/2000/svg">
<path fill-rule="evenodd" clip-rule="evenodd" d="M3103.44 608.082L2990.34 646.916C2874.38 685.693 2648.18 763.362 2462.11 749.276C2276.05 735.189 2135.83 629.462 1949.77 615.375C1763.7 601.288 1537.5 678.958 1308.44 756.569C1079.39 834.181 853.181 911.85 662.341 907.952C471.501 904.054 321.726 818.704 149.994 774.052C-21.7379 729.399 -209.729 725.559 -306.573 723.581L-400.569 721.661L-257.26 416L-163.264 417.92C-66.4204 419.898 121.571 423.738 312.41 427.636C503.25 431.534 691.241 435.374 882.081 439.272C1072.92 443.171 1260.91 447.011 1451.75 450.909C1642.59 454.807 1830.58 458.647 2021.42 462.545C2212.26 466.443 2400.25 470.283 2591.09 474.181C2781.93 478.079 2969.92 481.919 3066.77 483.897L3160.76 485.817L3103.44 608.082Z" fill="#16F4D0"/>
<path fill-rule="evenodd" clip-rule="evenodd" d="M-174.254 373.326L-22.8536 315.379C132.299 257.481 435.1 141.588 679.594 159.77C924.087 177.953 1102.77 330.115 1347.26 348.297C1591.76 366.48 1894.56 250.587 2201.11 134.742C2507.66 18.8973 2810.46 -96.9964 3061.85 -93.7055C3313.24 -90.4146 3505.72 31.9627 3729.52 94.8214C3953.33 157.68 4200.97 160.922 4328.54 162.592L4452.36 164.213L4245.49 610.971L4121.67 609.35C3994.1 607.68 3746.47 604.438 3495.08 601.147C3243.69 597.856 2996.05 594.615 2744.66 591.324C2493.27 588.033 2245.63 584.791 1994.25 581.5C1742.86 578.209 1495.22 574.967 1243.83 571.676C992.441 568.386 744.804 565.144 493.415 561.853C242.026 558.562 -5.6108 555.32 -133.181 553.65L-257 552.029L-174.254 373.326Z" fill="#16F4D0"/>
</svg>
