<svg width="37" height="50" viewBox="0 0 37 50" fill="none" xmlns="http://www.w3.org/2000/svg">
<path d="M28.6463 31.5116C31.4056 29.36 33.4094 26.3869 34.3683 23.0219C35.3272 19.6569 35.1916 16.0741 33.981 12.7912C32.7704 9.50836 30.5475 6.69531 27.6335 4.75847C24.7194 2.82163 21.2652 1.86129 17.7696 2.01618C14.274 2.17107 10.9182 3.43317 8.18693 5.62015C5.45564 7.80714 3.49029 10.8058 2.57479 14.1829C1.6593 17.56 1.84108 21.1406 3.09385 24.4077C4.34663 27.6747 6.60554 30.4589 9.54427 32.358" stroke="#333333" stroke-width="2.67568"/>
<path d="M9 31.5C9.96 33.1 10.7333 35.5 11 36.5" stroke="#333333" stroke-width="3" stroke-linecap="round"/>
<path d="M27 36C27.3696 34.018 28.4873 31.8408 29 31" stroke="#333333" stroke-width="3" stroke-linecap="round"/>
<line x1="10.5" y1="36.5" x2="10.5" y2="43.5" stroke="#333333" stroke-width="3" stroke-linecap="round"/>
<line x1="27" y1="36" x2="27" y2="43.5" stroke="#333333" stroke-width="3" stroke-linecap="round"/>
<line x1="26" y1="37.5" x2="12" y2="37.5" stroke="#333333" stroke-width="3"/>
<line x1="26" y1="42.5" x2="12" y2="42.5" stroke="#333333" stroke-width="3"/>
<path d="M10.7 44.25L11.7 46.75L13.2 48H14.7H24.7L26.2 46.75L26.7 44.875V43" stroke="#333333" stroke-width="3" stroke-linecap="round"/>
</svg>
