<svg width="463" height="1024" viewBox="0 0 463 1024" fill="none" xmlns="http://www.w3.org/2000/svg">
<path fill-rule="evenodd" clip-rule="evenodd" d="M413.933 -2.14479e-06L387.437 10C360.94 19 307.948 38 316.78 57C325.612 76 396.269 95 431.597 114C466.925 133 466.925 152 458.093 171C449.261 190 431.597 210 378.604 229C325.612 248 237.291 267 237.291 286C237.291 305 325.612 324 369.772 343C413.933 362 413.933 381 343.276 400C272.619 419 131.306 438 87.1456 457C42.9851 476 95.9777 495 166.634 514C237.291 533 325.612 552 307.948 571C290.284 590 166.634 610 166.634 629C166.634 648 290.284 667 290.284 686C290.284 705 166.634 724 122.474 743C78.3135 762 113.642 781 157.802 800C201.963 819 254.955 838 281.451 857C307.948 876 307.948 895 281.451 914C254.955 933 201.963 952 184.299 971C166.634 990 184.299 1010 219.627 1029C254.955 1048 307.948 1067 352.108 1086C396.269 1105 431.597 1124 405.101 1143C378.604 1162 290.284 1181 246.123 1190L201.963 1200L-63 1200L-63 1190C-63 1181 -63 1162 -63 1143C-63 1124 -63 1105 -63 1086C-63 1067 -63 1048 -63 1029C-63 1010 -63 990 -63 971C-63 952 -63 933 -63 914C-63 895 -63 876 -63 857C-63 838 -63 819 -63 800C-63 781 -63 762 -63 743C-63 724 -63 705 -63 686C-63 667 -63 648 -62.9999 629C-62.9999 610 -62.9999 590 -62.9999 571C-62.9999 552 -62.9999 533 -62.9999 514C-62.9999 495 -62.9999 476 -62.9999 457C-62.9999 438 -62.9999 419 -62.9999 400C-62.9999 381 -62.9999 362 -62.9999 343C-62.9999 324 -62.9999 305 -62.9999 286C-62.9999 267 -62.9999 248 -62.9999 229C-62.9999 210 -62.9999 190 -62.9999 171C-62.9999 152 -62.9999 133 -62.9999 114C-62.9999 95 -62.9999 76 -62.9999 57C-62.9999 38 -62.9999 19 -62.9999 9.99998L-62.9999 -2.29922e-05L413.933 -2.14479e-06Z" fill="#16F4D0"/>
</svg>
