<svg width="485" height="1024" viewBox="0 0 485 1024" fill="none" xmlns="http://www.w3.org/2000/svg">
<g clip-path="url(#clip0_208_2)">
<path fill-rule="evenodd" clip-rule="evenodd" d="M436.242 1182L409.912 1172C383.582 1163 330.924 1144 339.7 1125C348.477 1106 418.689 1087 453.795 1068C488.901 1049 488.901 1030 480.124 1011C471.348 992 453.795 972 401.136 953C348.477 934 260.712 915 260.712 896C260.712 877 348.477 858 392.359 839C436.242 820 436.242 801 366.03 782C295.817 763 155.393 744 111.511 725C67.6292 706 120.288 687 190.5 668C260.712 649 348.477 630 330.924 611C313.371 592 190.5 572 190.5 553C190.5 534 313.371 515 313.371 496C313.371 477 190.5 458 146.618 439C102.735 420 137.841 401 181.723 382C225.605 363 278.265 344 304.594 325C330.924 306 330.924 287 304.594 268C278.265 249 225.605 230 208.053 211C190.5 192 208.053 172 243.159 153C278.265 134 330.924 115 374.806 96C418.689 77 453.795 58 427.465 39C401.136 20 313.37 1 269.488 -8L225.605 -18H-37.6892V-7.99999C-37.6892 1.00001 -37.6892 20 -37.6892 39C-37.6892 58 -37.6892 77 -37.6892 96C-37.6892 115 -37.6892 134 -37.6892 153C-37.6892 172 -37.6892 192 -37.6892 211C-37.6892 230 -37.6892 249 -37.6892 268C-37.6892 287 -37.6892 306 -37.6892 325C-37.6892 344 -37.6892 363 -37.6892 382C-37.6892 401 -37.6892 420 -37.6892 439C-37.6892 458 -37.6892 477 -37.6892 496C-37.6892 515 -37.6892 534 -37.6892 553C-37.6892 572 -37.6892 592 -37.6892 611C-37.6892 630 -37.6892 649 -37.6892 668C-37.6892 687 -37.6892 706 -37.6892 725C-37.6892 744 -37.6892 763 -37.6892 782C-37.6892 801 -37.6892 820 -37.6892 839C-37.6892 858 -37.6892 877 -37.6892 896C-37.6892 915 -37.6892 934 -37.6892 953C-37.6892 972 -37.6892 992 -37.6892 1011C-37.6892 1030 -37.6892 1049 -37.6892 1068C-37.6892 1087 -37.6892 1106 -37.6892 1125C-37.6892 1144 -37.6892 1163 -37.6892 1172V1182H436.242Z" fill="#16F4D0"/>
</g>
<defs>
<clipPath id="clip0_208_2">
<rect width="485" height="1024" fill="white" transform="matrix(-1 0 0 1 485 0)"/>
</clipPath>
</defs>
</svg>
