<svg width="489" height="1024" viewBox="0 0 489 1024" fill="none" xmlns="http://www.w3.org/2000/svg">
<path fill-rule="evenodd" clip-rule="evenodd" d="M49.1604 1182L75.7071 1172C102.254 1163 155.347 1144 146.498 1125C137.649 1106 66.8582 1087 31.4627 1068C-3.93283 1049 -3.93283 1030 4.91605 1011C13.7649 992 31.4627 972 84.556 953C137.649 934 226.138 915 226.138 896C226.138 877 137.649 858 93.4049 839C49.1604 820 49.1605 801 119.951 782C190.743 763 332.325 744 376.569 725C420.813 706 367.72 687 296.929 668C226.138 649 137.649 630 155.347 611C173.045 592 296.929 572 296.929 553C296.929 534 173.045 515 173.045 496C173.045 477 296.929 458 341.173 439C385.418 420 350.022 401 305.778 382C261.534 363 208.44 344 181.894 325C155.347 306 155.347 287 181.894 268C208.44 249 261.534 230 279.231 211C296.929 192 279.231 172 243.836 153C208.44 134 155.347 115 111.103 96C66.8582 77 31.4627 58 58.0093 39C84.556 20 173.045 1 217.289 -8L261.534 -18L527 -18L527 -7.99999C527 1.00001 527 20 527 39C527 58 527 77 527 96C527 115 527 134 527 153C527 172 527 192 527 211C527 230 527 249 527 268C527 287 527 306 527 325C527 344 527 363 527 382C527 401 527 420 527 439C527 458 527 477 527 496C527 515 527 534 527 553C527 572 527 592 527 611C527 630 527 649 527 668C527 687 527 706 527 725C527 744 527 763 527 782C527 801 527 820 527 839C527 858 527 877 527 896C527 915 527 934 527 953C527 972 527 992 527 1011C527 1030 527 1049 527 1068C527 1087 527 1106 527 1125C527 1144 527 1163 527 1172L527 1182L49.1604 1182Z" fill="#16F4D0"/>
</svg>
