<svg width="463" height="1024" viewBox="0 0 463 1024" fill="none" xmlns="http://www.w3.org/2000/svg">
<g clip-path="url(#clip0_208_4)">
<path fill-rule="evenodd" clip-rule="evenodd" d="M49.067 2.08474e-05L75.563 10C102.06 19 155.052 38 146.22 57C137.388 76 66.731 95 31.403 114C-3.92498 133 -3.92502 152 4.90698 171C13.739 190 31.403 210 84.396 229C137.388 248 225.709 267 225.709 286C225.709 305 137.388 324 93.228 343C49.067 362 49.067 381 119.724 400C190.381 419 331.694 438 375.854 457C420.015 476 367.022 495 296.366 514C225.709 533 137.388 552 155.052 571C172.716 590 296.366 610 296.366 629C296.366 648 172.716 667 172.716 686C172.716 705 296.366 724 340.526 743C384.687 762 349.358 781 305.198 800C261.037 819 208.045 838 181.549 857C155.052 876 155.052 895 181.549 914C208.045 933 261.037 952 278.701 971C296.366 990 278.701 1010 243.373 1029C208.045 1048 155.052 1067 110.892 1086C66.731 1105 31.403 1124 57.899 1143C84.396 1162 172.716 1181 216.877 1190L261.037 1200H526V1190C526 1181 526 1162 526 1143C526 1124 526 1105 526 1086C526 1067 526 1048 526 1029C526 1010 526 990 526 971C526 952 526 933 526 914C526 895 526 876 526 857C526 838 526 819 526 800C526 781 526 762 526 743C526 724 526 705 526 686C526 667 526 648 526 629C526 610 526 590 526 571C526 552 526 533 526 514C526 495 526 476 526 457C526 438 526 419 526 400C526 381 526 362 526 343C526 324 526 305 526 286C526 267 526 248 526 229C526 210 526 190 526 171C526 152 526 133 526 114C526 95 526 76 526 57C526 38 526 19 526 10V0L49.067 2.08474e-05Z" fill="#16F4D0"/>
</g>
<defs>
<clipPath id="clip0_208_4">
<rect width="463" height="1024" fill="white" transform="matrix(-1 0 0 1 463 0)"/>
</clipPath>
</defs>
</svg>
