<svg width="1440" height="1024" viewBox="0 0 1440 1024" fill="none" xmlns="http://www.w3.org/2000/svg">
<path fill-rule="evenodd" clip-rule="evenodd" d="M1542.25 150.995L1514.37 199.751C1485.21 249.267 1429.44 346.779 1340.6 391.805C1251.76 436.831 1132.4 427.851 1043.56 472.877C954.726 517.903 898.959 615.415 841.918 713.687C784.877 811.959 729.11 909.471 643.805 960.414C558.5 1011.36 446.203 1014.21 346.766 1041.48C247.329 1068.76 163.297 1118.94 120.008 1144.8L77.9918 1169.89L-28 992.398L14.0159 967.307C57.3051 941.456 141.337 891.274 226.642 840.332C311.947 789.389 395.979 739.207 481.284 688.265C566.589 637.323 650.621 587.141 735.926 536.199C821.231 485.257 905.263 435.075 990.568 384.133C1075.87 333.19 1159.91 283.008 1245.21 232.066C1330.52 181.124 1414.55 130.942 1457.84 105.091L1499.85 79.9999L1542.25 150.995Z" fill="#16F4D0"/>
<path fill-rule="evenodd" clip-rule="evenodd" d="M-26.5751 990.65L0.992116 941.714C29.8275 892.01 84.9619 794.138 173.506 748.538C262.051 702.937 381.469 711.144 470.014 665.543C558.558 619.943 613.692 522.071 670.095 423.432C726.498 324.792 781.632 226.92 866.605 175.426C951.578 123.932 1063.85 120.353 1163.11 92.4321C1262.37 64.5111 1346.08 13.7857 1389.2 -12.3455L1431.05 -37.7082L1538.19 139.089L1496.34 164.452C1453.22 190.583 1369.51 241.309 1284.54 292.803C1199.56 344.296 1115.86 395.022 1030.89 446.516C945.913 498.01 862.208 548.735 777.235 600.229C692.261 651.723 608.557 702.448 523.583 753.942C438.61 805.436 354.905 856.162 269.932 907.655C184.959 959.149 101.254 1009.87 58.1333 1036.01L16.2808 1061.37L-26.5751 990.65Z" fill="#16F4D0"/>
</svg>
