<svg width="42" height="50" viewBox="0 0 42 50" fill="none" xmlns="http://www.w3.org/2000/svg">
<mask id="mask0_152_3" style="mask-type:alpha" maskUnits="userSpaceOnUse" x="0" y="0" width="42" height="50">
<rect width="42" height="50" fill="#D9D9D9"/>
</mask>
<g mask="url(#mask0_152_3)">
<mask id="path-2-inside-1_152_3" fill="white">
<path d="M42 49.7246C42 46.6681 41.4568 43.6414 40.4015 40.8175C39.3461 37.9936 37.7993 35.4278 35.8492 33.2665C33.8992 31.1052 31.5842 29.3907 29.0364 28.221C26.4885 27.0513 23.7578 26.4493 21 26.4493C18.2422 26.4493 15.5115 27.0513 12.9636 28.221C10.4158 29.3907 8.10079 31.1052 6.15076 33.2665C4.20073 35.4278 2.65388 37.9937 1.59853 40.8175C0.543181 43.6414 -2.41091e-07 46.6681 0 49.7246L21 49.7246H42Z"/>
</mask>
<path d="M42 49.7246C42 46.6681 41.4568 43.6414 40.4015 40.8175C39.3461 37.9936 37.7993 35.4278 35.8492 33.2665C33.8992 31.1052 31.5842 29.3907 29.0364 28.221C26.4885 27.0513 23.7578 26.4493 21 26.4493C18.2422 26.4493 15.5115 27.0513 12.9636 28.221C10.4158 29.3907 8.10079 31.1052 6.15076 33.2665C4.20073 35.4278 2.65388 37.9937 1.59853 40.8175C0.543181 43.6414 -2.41091e-07 46.6681 0 49.7246L21 49.7246H42Z" stroke="#333333" stroke-width="6" mask="url(#path-2-inside-1_152_3)"/>
<path d="M33.5 14.5C33.5 21.7298 27.8544 27.5 21 27.5C14.1456 27.5 8.5 21.7298 8.5 14.5C8.5 7.27025 14.1456 1.5 21 1.5C27.8544 1.5 33.5 7.27025 33.5 14.5Z" stroke="#333333" stroke-width="3"/>
</g>
</svg>
