<svg width="407" height="320" viewBox="0 0 407 320" fill="none" xmlns="http://www.w3.org/2000/svg">
<mask id="mask0_60_9" style="mask-type:alpha" maskUnits="userSpaceOnUse" x="0" y="0" width="407" height="320">
<rect x="0.4375" y="0.25" width="406.125" height="319.438" rx="35.625" fill="#FDE9FF"/>
</mask>
<g mask="url(#mask0_60_9)">
<rect x="-91" y="-38" width="552" height="392" fill="white"/>
<path fill-rule="evenodd" clip-rule="evenodd" d="M213.855 24.4229C257.527 21.3883 303.822 34.6963 331.795 63.9642C358.182 91.5721 352.102 130.538 349.495 166.338C347.12 198.954 343.085 232.348 317.771 256.539C291.349 281.79 253.141 296.83 213.855 295.965C175.416 295.118 143.733 274.335 115.081 252.076C84.1062 228.012 47.3536 202.42 47.0025 166.338C46.6501 130.12 83.5946 104.489 113.398 79.14C142.752 54.1736 172.89 27.2695 213.855 24.4229Z" fill="#16F4D0"/>
<path d="M100.196 149.094H93.9744C93.8608 148.289 93.6288 147.574 93.2784 146.949C92.928 146.314 92.4782 145.775 91.929 145.33C91.3797 144.884 90.7453 144.544 90.0256 144.307C89.3153 144.07 88.5436 143.952 87.7102 143.952C86.2045 143.952 84.893 144.326 83.7756 145.074C82.6581 145.812 81.7917 146.892 81.1761 148.312C80.5606 149.723 80.2528 151.437 80.2528 153.455C80.2528 155.528 80.5606 157.271 81.1761 158.682C81.8011 160.093 82.6723 161.158 83.7898 161.878C84.9072 162.598 86.1998 162.957 87.6676 162.957C88.4915 162.957 89.2538 162.848 89.9545 162.631C90.6648 162.413 91.2945 162.096 91.8438 161.679C92.393 161.253 92.8475 160.737 93.2074 160.131C93.5767 159.525 93.8324 158.833 93.9744 158.057L100.196 158.085C100.035 159.42 99.6326 160.708 98.9886 161.949C98.3542 163.18 97.4972 164.283 96.4176 165.259C95.3475 166.224 94.0691 166.991 92.5824 167.56C91.1051 168.118 89.4337 168.398 87.5682 168.398C84.9735 168.398 82.6534 167.811 80.608 166.636C78.572 165.462 76.9621 163.762 75.7784 161.537C74.6042 159.312 74.017 156.617 74.017 153.455C74.017 150.282 74.6136 147.583 75.8068 145.358C77 143.133 78.6193 141.437 80.6648 140.273C82.7102 139.098 85.0114 138.511 87.5682 138.511C89.2538 138.511 90.8163 138.748 92.2557 139.222C93.7045 139.695 94.9877 140.386 96.1051 141.295C97.2225 142.195 98.1316 143.298 98.8324 144.605C99.5426 145.912 99.9972 147.408 100.196 149.094ZM114.351 168.426C112.144 168.426 110.236 167.957 108.626 167.02C107.026 166.073 105.79 164.757 104.919 163.071C104.048 161.376 103.612 159.411 103.612 157.176C103.612 154.922 104.048 152.953 104.919 151.267C105.79 149.572 107.026 148.256 108.626 147.318C110.236 146.371 112.144 145.898 114.351 145.898C116.557 145.898 118.461 146.371 120.061 147.318C121.671 148.256 122.911 149.572 123.783 151.267C124.654 152.953 125.089 154.922 125.089 157.176C125.089 159.411 124.654 161.376 123.783 163.071C122.911 164.757 121.671 166.073 120.061 167.02C118.461 167.957 116.557 168.426 114.351 168.426ZM114.379 163.739C115.383 163.739 116.221 163.455 116.893 162.886C117.566 162.309 118.072 161.523 118.413 160.528C118.764 159.534 118.939 158.402 118.939 157.134C118.939 155.865 118.764 154.733 118.413 153.739C118.072 152.744 117.566 151.958 116.893 151.381C116.221 150.803 115.383 150.514 114.379 150.514C113.366 150.514 112.514 150.803 111.822 151.381C111.141 151.958 110.625 152.744 110.274 153.739C109.933 154.733 109.763 155.865 109.763 157.134C109.763 158.402 109.933 159.534 110.274 160.528C110.625 161.523 111.141 162.309 111.822 162.886C112.514 163.455 113.366 163.739 114.379 163.739ZM129.024 168V146.182H134.791V150.031H135.047C135.501 148.753 136.259 147.744 137.32 147.006C138.38 146.267 139.649 145.898 141.126 145.898C142.623 145.898 143.896 146.272 144.947 147.02C145.999 147.759 146.699 148.762 147.05 150.031H147.277C147.722 148.781 148.527 147.782 149.692 147.034C150.866 146.277 152.253 145.898 153.854 145.898C155.89 145.898 157.542 146.546 158.811 147.844C160.089 149.132 160.729 150.959 160.729 153.327V168H154.692V154.52C154.692 153.308 154.37 152.399 153.726 151.793C153.082 151.187 152.277 150.884 151.311 150.884C150.213 150.884 149.356 151.234 148.74 151.935C148.125 152.626 147.817 153.54 147.817 154.676V168H141.95V154.392C141.95 153.322 141.643 152.47 141.027 151.835C140.421 151.201 139.621 150.884 138.626 150.884C137.954 150.884 137.348 151.054 136.808 151.395C136.278 151.726 135.857 152.195 135.544 152.801C135.232 153.398 135.075 154.098 135.075 154.903V168H129.024ZM165.509 168V146.182H171.56V168H165.509ZM168.548 143.369C167.649 143.369 166.877 143.071 166.233 142.474C165.598 141.868 165.281 141.144 165.281 140.301C165.281 139.468 165.598 138.753 166.233 138.156C166.877 137.55 167.649 137.247 168.548 137.247C169.448 137.247 170.215 137.55 170.849 138.156C171.493 138.753 171.815 139.468 171.815 140.301C171.815 141.144 171.493 141.868 170.849 142.474C170.215 143.071 169.448 143.369 168.548 143.369ZM182.458 155.386V168H176.407V146.182H182.174V150.031H182.43C182.913 148.762 183.722 147.759 184.859 147.02C185.995 146.272 187.373 145.898 188.992 145.898C190.507 145.898 191.828 146.229 192.955 146.892C194.082 147.555 194.958 148.502 195.583 149.733C196.208 150.955 196.521 152.413 196.521 154.108V168H190.469V155.188C190.479 153.852 190.138 152.811 189.447 152.062C188.755 151.305 187.804 150.926 186.592 150.926C185.777 150.926 185.058 151.101 184.433 151.452C183.817 151.802 183.334 152.313 182.984 152.986C182.643 153.649 182.468 154.449 182.458 155.386ZM211.119 176.636C209.159 176.636 207.478 176.366 206.077 175.827C204.685 175.296 203.577 174.572 202.753 173.653C201.929 172.735 201.394 171.703 201.148 170.557L206.744 169.804C206.915 170.24 207.185 170.647 207.554 171.026C207.923 171.404 208.411 171.707 209.017 171.935C209.633 172.171 210.381 172.29 211.261 172.29C212.578 172.29 213.662 171.968 214.514 171.324C215.376 170.689 215.807 169.624 215.807 168.128V164.136H215.551C215.286 164.742 214.888 165.315 214.358 165.855C213.828 166.395 213.146 166.835 212.312 167.176C211.479 167.517 210.485 167.688 209.33 167.688C207.691 167.688 206.2 167.309 204.855 166.551C203.52 165.784 202.455 164.615 201.659 163.043C200.873 161.461 200.48 159.463 200.48 157.048C200.48 154.577 200.883 152.512 201.688 150.855C202.492 149.198 203.563 147.957 204.898 147.134C206.242 146.31 207.715 145.898 209.315 145.898C210.537 145.898 211.56 146.106 212.384 146.523C213.207 146.93 213.87 147.441 214.372 148.057C214.884 148.663 215.277 149.259 215.551 149.847H215.778V146.182H221.787V168.213C221.787 170.069 221.332 171.622 220.423 172.872C219.514 174.122 218.255 175.06 216.645 175.685C215.045 176.319 213.203 176.636 211.119 176.636ZM211.247 163.142C212.223 163.142 213.046 162.901 213.719 162.418C214.401 161.925 214.921 161.224 215.281 160.315C215.651 159.397 215.835 158.298 215.835 157.02C215.835 155.741 215.655 154.634 215.295 153.696C214.936 152.749 214.415 152.015 213.733 151.494C213.051 150.973 212.223 150.713 211.247 150.713C210.253 150.713 209.415 150.983 208.733 151.523C208.051 152.053 207.535 152.792 207.185 153.739C206.834 154.686 206.659 155.779 206.659 157.02C206.659 158.279 206.834 159.368 207.185 160.287C207.545 161.196 208.061 161.902 208.733 162.403C209.415 162.896 210.253 163.142 211.247 163.142ZM251.755 147.276C251.641 146.13 251.154 145.24 250.292 144.605C249.43 143.971 248.261 143.653 246.783 143.653C245.78 143.653 244.932 143.795 244.241 144.08C243.549 144.354 243.019 144.738 242.65 145.23C242.29 145.723 242.11 146.281 242.11 146.906C242.091 147.427 242.2 147.882 242.437 148.27C242.683 148.658 243.019 148.994 243.445 149.278C243.871 149.553 244.364 149.795 244.923 150.003C245.481 150.202 246.078 150.372 246.712 150.514L249.326 151.139C250.595 151.423 251.76 151.802 252.82 152.276C253.881 152.749 254.799 153.331 255.576 154.023C256.353 154.714 256.954 155.528 257.38 156.466C257.816 157.403 258.038 158.478 258.048 159.69C258.038 161.471 257.584 163.014 256.684 164.321C255.794 165.618 254.506 166.627 252.82 167.347C251.144 168.057 249.122 168.412 246.755 168.412C244.406 168.412 242.361 168.052 240.619 167.332C238.886 166.613 237.531 165.547 236.556 164.136C235.59 162.716 235.084 160.959 235.036 158.866H240.988C241.054 159.842 241.334 160.656 241.826 161.31C242.328 161.954 242.996 162.441 243.829 162.773C244.672 163.095 245.623 163.256 246.684 163.256C247.726 163.256 248.63 163.104 249.397 162.801C250.174 162.498 250.775 162.077 251.201 161.537C251.627 160.997 251.84 160.377 251.84 159.676C251.84 159.023 251.646 158.473 251.258 158.028C250.879 157.583 250.32 157.205 249.582 156.892C248.853 156.58 247.958 156.295 246.897 156.04L243.729 155.244C241.277 154.648 239.34 153.715 237.92 152.446C236.499 151.177 235.794 149.468 235.803 147.318C235.794 145.557 236.263 144.018 237.21 142.702C238.166 141.385 239.478 140.358 241.144 139.619C242.811 138.881 244.705 138.511 246.826 138.511C248.985 138.511 250.87 138.881 252.479 139.619C254.099 140.358 255.358 141.385 256.258 142.702C257.157 144.018 257.621 145.543 257.65 147.276H251.755ZM271.929 168.426C269.723 168.426 267.814 167.957 266.205 167.02C264.604 166.073 263.368 164.757 262.497 163.071C261.626 161.376 261.19 159.411 261.19 157.176C261.19 154.922 261.626 152.953 262.497 151.267C263.368 149.572 264.604 148.256 266.205 147.318C267.814 146.371 269.723 145.898 271.929 145.898C274.135 145.898 276.039 146.371 277.639 147.318C279.249 148.256 280.49 149.572 281.361 151.267C282.232 152.953 282.668 154.922 282.668 157.176C282.668 159.411 282.232 161.376 281.361 163.071C280.49 164.757 279.249 166.073 277.639 167.02C276.039 167.957 274.135 168.426 271.929 168.426ZM271.957 163.739C272.961 163.739 273.799 163.455 274.472 162.886C275.144 162.309 275.651 161.523 275.991 160.528C276.342 159.534 276.517 158.402 276.517 157.134C276.517 155.865 276.342 154.733 275.991 153.739C275.651 152.744 275.144 151.958 274.472 151.381C273.799 150.803 272.961 150.514 271.957 150.514C270.944 150.514 270.092 150.803 269.401 151.381C268.719 151.958 268.203 152.744 267.852 153.739C267.511 154.733 267.341 155.865 267.341 157.134C267.341 158.402 267.511 159.534 267.852 160.528C268.203 161.523 268.719 162.309 269.401 162.886C270.092 163.455 270.944 163.739 271.957 163.739ZM296.46 168.426C294.254 168.426 292.346 167.957 290.736 167.02C289.135 166.073 287.9 164.757 287.028 163.071C286.157 161.376 285.722 159.411 285.722 157.176C285.722 154.922 286.157 152.953 287.028 151.267C287.9 149.572 289.135 148.256 290.736 147.318C292.346 146.371 294.254 145.898 296.46 145.898C298.667 145.898 300.57 146.371 302.17 147.318C303.78 148.256 305.021 149.572 305.892 151.267C306.763 152.953 307.199 154.922 307.199 157.176C307.199 159.411 306.763 161.376 305.892 163.071C305.021 164.757 303.78 166.073 302.17 167.02C300.57 167.957 298.667 168.426 296.46 168.426ZM296.489 163.739C297.492 163.739 298.33 163.455 299.003 162.886C299.675 162.309 300.182 161.523 300.523 160.528C300.873 159.534 301.048 158.402 301.048 157.134C301.048 155.865 300.873 154.733 300.523 153.739C300.182 152.744 299.675 151.958 299.003 151.381C298.33 150.803 297.492 150.514 296.489 150.514C295.475 150.514 294.623 150.803 293.932 151.381C293.25 151.958 292.734 152.744 292.384 153.739C292.043 154.733 291.872 155.865 291.872 157.134C291.872 158.402 292.043 159.534 292.384 160.528C292.734 161.523 293.25 162.309 293.932 162.886C294.623 163.455 295.475 163.739 296.489 163.739ZM317.185 155.386V168H311.134V146.182H316.901V150.031H317.156C317.639 148.762 318.449 147.759 319.585 147.02C320.722 146.272 322.099 145.898 323.719 145.898C325.234 145.898 326.555 146.229 327.682 146.892C328.809 147.555 329.685 148.502 330.31 149.733C330.935 150.955 331.247 152.413 331.247 154.108V168H325.196V155.188C325.205 153.852 324.865 152.811 324.173 152.062C323.482 151.305 322.53 150.926 321.318 150.926C320.504 150.926 319.784 151.101 319.159 151.452C318.544 151.802 318.061 152.313 317.71 152.986C317.369 153.649 317.194 154.449 317.185 155.386Z" fill="black"/>
</g>
</svg>
