<svg width="734" height="688" viewBox="0 0 734 688" fill="none" xmlns="http://www.w3.org/2000/svg">
<path fill-rule="evenodd" clip-rule="evenodd" d="M462.827 4.28476C541.109 17.884 593.997 84.6864 645.212 147.228C690.549 202.593 731.62 262.866 733.883 335.289C736.216 409.942 703.32 478.143 657.358 535.874C605.214 601.369 543.483 659.504 462.827 675.746C363.561 695.735 256.19 693.835 173.877 633.233C78.831 563.257 -6.58234 455.496 0.400363 335.289C7.21477 217.98 112.911 138.036 206.535 71.0203C281.781 17.1597 372.501 -11.4069 462.827 4.28476Z" fill="#16F4D0"/>
<path fill-rule="evenodd" clip-rule="evenodd" d="M436.784 96.8949C493.79 106.798 532.304 155.445 569.6 200.99C602.616 241.307 632.525 285.2 634.173 337.94C635.872 392.304 611.916 441.97 578.445 484.01C540.473 531.705 495.519 574.041 436.784 585.868C364.495 600.425 286.305 599.041 226.363 554.91C157.149 503.951 94.9487 425.477 100.034 337.94C104.996 252.513 181.966 194.296 250.146 145.493C304.941 106.271 371.006 85.4679 436.784 96.8949Z" fill="#FCF7F8"/>
</svg>
