<svg width="1440" height="1049" viewBox="0 0 1440 1049" fill="none" xmlns="http://www.w3.org/2000/svg">
<path fill-rule="evenodd" clip-rule="evenodd" d="M50.9228 445.936L90.1185 426.864C130.439 407.955 208.831 369.811 283.709 386.814C358.587 403.818 427.701 475.643 502.579 492.646C577.458 509.65 655.849 471.506 735.365 433.524C814.882 395.543 893.273 357.399 968.667 368.293C1044.06 379.187 1114.21 438.794 1187.54 474.125C1260.87 509.457 1335.14 520.188 1373.4 525.716L1410.53 531.082L1395.07 714.364L1357.94 708.998C1319.68 703.47 1245.41 692.738 1170.01 681.844C1094.62 670.951 1020.35 660.219 944.959 649.325C869.565 638.431 795.297 627.7 719.904 616.806C644.51 605.912 570.242 595.181 494.849 584.287C419.455 573.393 345.187 562.662 269.793 551.768C194.4 540.874 120.132 530.143 81.8723 524.615L44.7382 519.249L50.9228 445.936Z" fill="#16F4D0"/>
<path fill-rule="evenodd" clip-rule="evenodd" d="M1393.4 714.814L1354.32 734.186C1314.11 753.404 1235.95 792.149 1160.99 775.712C1086.03 759.275 1016.53 687.965 941.571 671.528C866.612 655.091 788.446 693.835 709.154 732.426C629.862 771.016 551.696 809.761 476.256 799.438C400.816 789.115 330.354 730.033 256.84 695.253C183.326 660.474 109.012 650.305 70.7286 645.067L33.5715 639.982L48.0163 456.557L85.1734 461.642C123.456 466.88 197.77 477.049 273.211 487.372C348.651 497.695 422.965 507.863 498.405 518.186C573.845 528.509 648.159 538.678 723.599 549.001C799.039 559.324 873.353 569.492 948.793 579.815C1024.23 590.138 1098.55 600.307 1173.99 610.63C1249.43 620.952 1323.74 631.121 1362.02 636.36L1399.18 641.444L1393.4 714.814Z" fill="#16F4D0"/>
<rect width="28.2587" height="228.554" rx="14.1294" transform="matrix(1 0.000509287 -0.000365898 1 1390.59 505.608)" fill="#333333"/>
<rect width="28.2587" height="232.871" rx="14.1294" transform="matrix(1 0.000509304 -0.000365904 1 34.7178 425.223)" fill="#333333"/>
</svg>
